<?xml version="1.0" encoding="utf-8"?>
<!-- Generator: Adobe Illustrator 25.3.1, SVG Export Plug-In . SVG Version: 6.00 Build 0)  -->
<svg version="1.1" id="Слой_1" xmlns="http://www.w3.org/2000/svg" xmlns:xlink="http://www.w3.org/1999/xlink" x="0px" y="0px"
	 viewBox="0 0 20 20" style="enable-background:new 0 0 20 20;" xml:space="preserve">
<g transform="translate(0.000000,1253.000000) scale(0.100000,-0.100000)">
	<path d="M186.1,12528.2c-3-0.4-6.1-1.5-10.1-3.6c-6.9-3.5-14.8-9.3-24.9-18c-14.2-12.3-33.2-31.4-53.3-53.7
		c-10.2-11.3-21.4-24.1-29.4-33.9c-1.3-1.6-2.4-3-2.5-3s-1,0.5-2.2,1.2c-3.9,2.1-13.5,6.9-16.6,8.4c-13.1,6.1-22.2,9.3-29.4,10.4
		c-2.1,0.3-5.7,0.2-7.4-0.2c-3.4-0.8-6.2-2.8-7.6-5.7c-0.8-1.6-1.1-2.9-1.1-4.9c0-1.6,0-1.8,0.5-2.8c0.4-0.9,0.8-1.4,3.6-4
		c6.7-6.4,14.1-14.2,19.6-20.7c12.2-14.5,25-34,39.6-60.6c2.6-4.7,3.6-5.6,6.2-5.6c1,0,1.5,0.1,2,0.3c1.7,0.8,2.4,1.7,3.7,4.9
		c2.1,5.4,6.1,15.1,8.7,21c19.8,45,43.3,83.2,71.5,115.7c8,9.2,14.9,16.5,28,29.3c10.2,10.1,12.1,12.4,13,15.8
		c1.2,5.2-2.9,9.4-9.3,9.6C187.8,12528.3,186.6,12528.3,186.1,12528.2z"/>
</g>
</svg>
